HIERARCHY
ROOT Hips
{
	OFFSET 0.00000 0.00000 0.00000
	CHANNELS 6 Xposition Yposition Zposition Zrotation Yrotation Xrotation 
	JOINT LHipJoint
	{
		OFFSET 0 0 0
		CHANNELS 3 Zrotation Yrotation Xrotation
		JOINT LeftUpLeg
		{
			OFFSET 1.38615 -1.80049 0.80104
			CHANNELS 3 Zrotation Yrotation Xrotation
			JOINT LeftLeg
			{
				OFFSET 2.50172 -6.87341 0.00000
				CHANNELS 3 Zrotation Yrotation Xrotation
				JOINT LeftFoot
				{
					OFFSET 2.67523 -7.35014 0.00000
					CHANNELS 3 Zrotation Yrotation Xrotation
					JOINT LeftToeBase
					{
						OFFSET 0.17446 -0.47932 2.13155
						CHANNELS 3 Zrotation Yrotation Xrotation
						End Site
						{
							OFFSET 0.00000 -0.00000 1.10023
						}
					}
				}
			}
		}
	}
	JOINT RHipJoint
	{
		OFFSET 0 0 0
		CHANNELS 3 Zrotation Yrotation Xrotation
		JOINT RightUpLeg
		{
			OFFSET -1.18047 -1.80049 0.80104
			CHANNELS 3 Zrotation Yrotation Xrotation
			JOINT RightLeg
			{
				OFFSET -2.59789 -7.13765 0.00000
				CHANNELS 3 Zrotation Yrotation Xrotation
				JOINT RightFoot
				{
					OFFSET -2.62125 -7.20183 0.00000
					CHANNELS 3 Zrotation Yrotation Xrotation
					JOINT RightToeBase
					{
						OFFSET -0.31287 -0.85960 2.07814
						CHANNELS 3 Zrotation Yrotation Xrotation
						End Site
						{
							OFFSET -0.00000 -0.00000 1.11766
						}
					}
				}
			}
		}
	}
	JOINT LowerBack
	{
		OFFSET 0 0 0
		CHANNELS 3 Zrotation Yrotation Xrotation
		JOINT Spine
		{
			OFFSET -0.01587 2.16157 -0.12309
			CHANNELS 3 Zrotation Yrotation Xrotation
			JOINT Spine1
			{
				OFFSET 0.04727 2.16674 -0.03569
				CHANNELS 3 Zrotation Yrotation Xrotation
				JOINT Neck
				{
					OFFSET 0 0 0
					CHANNELS 3 Zrotation Yrotation Xrotation
					JOINT Neck1
					{
						OFFSET -0.08586 1.60335 0.32783
						CHANNELS 3 Zrotation Yrotation Xrotation
						JOINT Head
						{
							OFFSET 0.07583 1.65857 -0.31618
							CHANNELS 3 Zrotation Yrotation Xrotation
							End Site
							{
								OFFSET 0.03386 1.69434 -0.14584
							}
						}
					}
				}
				JOINT LeftShoulder
				{
					OFFSET 0 0 0
					CHANNELS 3 Zrotation Yrotation Xrotation
					JOINT LeftArm
					{
						OFFSET 3.17393 1.01901 -0.52897
						CHANNELS 3 Zrotation Yrotation Xrotation
						JOINT LeftForeArm
						{
							OFFSET 5.25287 -0.00000 -0.00000
							CHANNELS 3 Zrotation Yrotation Xrotation
							JOINT LeftHand
							{
								OFFSET 3.51014 -0.00000 0.00000
								CHANNELS 3 Zrotation Yrotation Xrotation
								JOINT LeftFingerBase
								{
									OFFSET 0 0 0
									CHANNELS 3 Zrotation Yrotation Xrotation
									JOINT LeftHandIndex1
									{
										OFFSET 0.70618 -0.00000 -0.00000
										CHANNELS 3 Zrotation Yrotation Xrotation
										End Site
										{
											OFFSET 0.56934 -0.00000 -0.00000
										}
									}
								}
								JOINT LThumb
								{
									OFFSET 0 0 0
									CHANNELS 3 Zrotation Yrotation Xrotation
									End Site
									{
										OFFSET 0.57803 -0.00000 0.57803
									}
								}
							}
						}
					}
				}
				JOINT RightShoulder
				{
					OFFSET 0 0 0
					CHANNELS 3 Zrotation Yrotation Xrotation
					JOINT RightArm
					{
						OFFSET -2.99471 1.26495 -0.61125
						CHANNELS 3 Zrotation Yrotation Xrotation
						JOINT RightForeArm
						{
							OFFSET -5.28721 -0.00000 -0.00000
							CHANNELS 3 Zrotation Yrotation Xrotation
							JOINT RightHand
							{
								OFFSET -3.50544 -0.00000 0.00000
								CHANNELS 3 Zrotation Yrotation Xrotation
								JOINT RightFingerBase
								{
									OFFSET 0 0 0
									CHANNELS 3 Zrotation Yrotation Xrotation
									JOINT RightHandIndex1
									{
										OFFSET -0.88500 -0.00000 -0.00000
										CHANNELS 3 Zrotation Yrotation Xrotation
										End Site
										{
											OFFSET -0.71351 -0.00000 -0.00000
										}
									}
								}
								JOINT RThumb
								{
									OFFSET 0 0 0
									CHANNELS 3 Zrotation Yrotation Xrotation
									End Site
									{
										OFFSET -0.72440 -0.00000 0.72440
									}
								}
							}
						}
					}
				}
			}
		}
	}
}
MOTION
Frames: 16
Frame Time: .0083333
13.2066 12.324 -14.9839 0 0 0 0 0 0 -21 0 0 0 0 0 0 0 0 0 0 0 0 0 0 21 0 0 0 0 0 0 0 0 0 0 0 0 0 0 0 0 0 0 0 0 0 0 -16 0 0 21 0 0 11 0 0 0 -8 0 0 0 0 0 0 0 0 0 0 0 0 0 0 0 0 0 0 0 0 8 0 0 0 0 0 0 0 0 0 0 0 0 0 0 0 0 0
13.2066 12.3240 -14.9839 8.0830 -18.7241 -1.2362 0.0000 0.0000 0.0000 -17.5480 -11.9837 -1.5339 16.9547 19.7762 81.0642 -1.9429 -30.4049 32.2322 1.5912 7.9569 22.5833 0.0000 0.0000 0.0000 17.1661 6.5912 -57.8201 -27.9202 -18.4242 113.7585 -5.1453 4.6032 -42.2111 -0.1801 2.7334 -7.5373 -6.1670 -3.6442 11.9496 0.9802 -5.5965 1.3187 5.3452 -2.6505 -4.6021 -5.0347 5.6072 -21.5249 0.2254 9.6405 25.9434 2.4578 3.8022 11.8265 0.0000 -0.0000 0.0000 -42.7205 -24.3684 -3.0399 77.6271 -59.4136 -49.3059 -0.0000 0.0000 -3.7171 18.5240 33.9093 10.5878 -7.1250 0.0000 -0.0000 -18.0365 64.4467 -8.6264 0.0000 -0.0000 0.0000 9.4847 9.8187 -17.6463 -153.2304 37.9586 -110.6429 0.0000 0.0000 22.5470 -39.0225 32.2555 -23.3897 7.1250 -0.0000 -0.0000 -3.8739 9.0282 -4.4432
13.1576 12.3509 -14.8745 8.0331 -18.6083 -0.6592 0.0000 0.0000 0.0000 -17.7464 -12.1065 -1.3439 16.7849 19.7503 80.5621 -1.8830 -29.8262 31.4453 1.3419 7.3343 20.7097 0.0000 0.0000 0.0000 17.3793 6.9277 -57.7657 -27.8637 -18.4477 113.5800 -5.1651 3.8299 -42.4373 -0.2642 3.3066 -9.1335 -6.1124 -3.6410 11.7182 1.0032 -5.5723 1.2008 5.3218 -2.6362 -4.6046 -5.1332 5.5820 -21.5883 0.3925 9.5832 25.7449 2.5208 3.7999 11.7469 -0.0000 0.0000 0.0000 -42.9457 -24.2474 -1.8512 78.3799 -59.4836 -49.9542 -0.0000 0.0000 -3.0933 17.7891 33.1325 9.9469 -7.1250 0.0000 -0.0000 -18.1595 63.5173 -8.2938 -0.0000 0.0000 0.0000 10.1833 9.4464 -17.3960 -153.7378 37.4665 -110.9533 0.0000 0.0000 23.9024 -39.9293 31.3566 -23.5352 7.1250 -0.0000 -0.0000 -4.6000 8.3820 -5.2372
13.1048 12.3952 -14.7790 6.9103 -18.6036 0.3113 0.0000 0.0000 0.0000 -16.4049 -12.0200 -1.5097 16.6904 19.7353 80.2821 -1.5763 -28.7756 31.4656 1.3116 7.2542 20.4708 0.0000 0.0000 0.0000 18.9244 7.7447 -57.4906 -27.6802 -18.5226 113.0012 -5.1436 2.8113 -42.5466 -0.3460 3.7796 -10.4573 -5.1150 -3.5281 11.6262 1.3303 -5.2732 1.1171 5.0672 -2.4973 -4.7394 -4.7531 5.4475 -21.6142 -0.1193 9.3962 25.4056 2.2369 3.6976 11.6817 0.0000 0.0000 0.0000 -43.2827 -24.3910 -0.4147 78.6811 -59.5103 -50.2137 -0.0000 0.0000 -2.4892 16.9806 31.5960 9.0895 -7.1250 0.0000 -0.0000 -17.7590 61.8560 -7.4106 0.0000 0.0000 0.0000 10.9304 8.6740 -17.2240 -154.2893 36.9216 -111.2867 0.0000 0.0000 25.0329 -40.6381 30.9733 -23.8307 7.1250 -0.0000 -0.0000 -5.0858 8.2290 -5.7827
13.0554 12.4559 -14.6976 5.7657 -18.4693 1.3731 0.0000 0.0000 0.0000 -14.6997 -11.7075 -2.4971 16.6239 19.7245 80.0852 -1.4418 -28.1736 31.2362 1.0317 6.4607 18.1271 0.0000 0.0000 0.0000 20.5125 8.3494 -57.2337 -27.4705 -18.6056 112.3424 -5.1649 1.7842 -42.8636 -0.4111 4.1159 -11.4029 -4.2011 -3.5444 11.7223 1.8035 -5.1580 0.9130 5.0586 -2.4388 -5.0579 -4.9252 5.4391 -21.6600 -0.1888 9.4585 25.2291 2.2444 3.7076 11.6175 -0.0000 0.0000 0.0000 -43.9370 -24.0405 0.9477 78.9258 -59.5315 -50.4245 -0.0000 0.0000 -1.7068 16.3447 30.4398 8.4511 -7.1250 0.0000 -0.0000 -17.5585 60.6012 -6.8002 -0.0000 0.0000 0.0000 11.3014 8.1623 -16.9539 -154.8516 36.3553 -111.6223 0.0000 0.0000 25.6861 -41.0507 31.1466 -24.2480 7.1250 -0.0000 -0.0000 -5.2639 8.5831 -6.0142
13.0154 12.5108 -14.6012 5.9153 -18.2691 1.8518 0.0000 0.0000 0.0000 -14.6701 -11.3744 -3.0724 16.5072 19.7050 79.7394 -1.4282 -27.8816 30.7718 0.6314 5.0842 14.1487 0.0000 0.0000 0.0000 20.4989 8.2261 -57.0162 -27.3451 -18.6540 111.9500 -5.2689 1.5586 -43.3626 -0.4438 4.2744 -11.8498 -4.4676 -3.6380 11.7504 1.9336 -5.3126 0.7927 5.3757 -2.5022 -5.1465 -5.3531 5.6318 -21.7903 0.1682 9.7775 25.1051 2.4890 3.8649 11.5380 0.0000 0.0000 0.0000 -44.6110 -23.2882 2.1378 79.8157 -59.6044 -51.1918 -0.0000 0.0000 -0.9094 15.7539 30.5046 8.1492 -7.1250 0.0000 -0.0000 -18.2438 60.5215 -7.0412 0.0000 0.0000 0.0000 11.5390 8.0300 -16.7757 -155.3509 35.8432 -111.9165 0.0000 0.0000 26.4688 -41.5252 31.0447 -24.5444 7.1250 -0.0000 -0.0000 -5.5482 8.6575 -6.3479
12.9822 12.5537 -14.4923 6.4251 -18.1577 1.9875 0.0000 0.0000 0.0000 -15.2093 -10.9751 -3.0462 16.3423 19.6762 79.2498 -1.0881 -26.6970 30.9748 0.5192 4.6180 12.8222 0.0000 0.0000 0.0000 20.1015 7.8450 -56.6005 -27.3100 -18.6674 111.8401 -5.3422 0.8836 -43.8354 -0.6108 5.0021 -13.9144 -5.0117 -3.6435 11.7857 1.9156 -5.3932 0.8405 5.6728 -2.5349 -5.0576 -5.3437 5.7245 -21.9158 0.0574 9.9240 24.7111 2.4608 3.9349 11.4148 0.0000 0.0000 0.0000 -45.2457 -22.7036 3.3164 80.5913 -59.6628 -51.8610 -0.0000 0.0000 -0.1394 15.1258 30.5460 7.8221 -7.1250 0.0000 -0.0000 -18.9486 60.4112 -7.2746 0.0000 0.0000 0.0000 12.0092 8.0710 -16.6049 -155.7559 35.4214 -112.1524 0.0000 0.0000 27.5445 -42.1962 31.0797 -25.0808 7.1250 -0.0000 -0.0000 -5.9016 8.9676 -6.7827
12.9547 12.5899 -14.3786 7.3799 -18.1236 1.9274 0.0000 0.0000 0.0000 -16.3529 -10.6422 -3.0286 16.1748 19.6455 78.7521 -0.4913 -24.4128 31.2615 0.6077 4.9896 13.8790 0.0000 0.0000 0.0000 19.1487 7.3747 -56.1360 -27.3210 -18.6632 111.8746 -5.3768 0.1539 -44.1647 -0.8487 5.8756 -16.4239 -5.8507 -3.6353 11.7943 1.7421 -5.5010 0.9247 5.9693 -2.5806 -4.8982 -5.2256 5.7040 -21.8788 -0.2638 9.9051 24.0724 2.3014 3.9261 11.1952 0.0000 -0.0000 0.0000 -46.0002 -21.9346 4.3211 80.8185 -59.6791 -52.0572 -0.0000 -0.0000 0.7955 14.7412 29.7872 7.4469 -7.1250 0.0000 -0.0000 -18.7925 59.6055 -6.8491 0.0000 -0.0000 0.0000 12.4526 8.2864 -16.2349 -156.1767 34.9769 -112.3950 0.0000 0.0000 28.4049 -42.8843 31.3326 -25.7783 7.1250 -0.0000 -0.0000 -6.2022 9.5353 -7.1827
12.9255 12.6470 -14.2613 8.3444 -18.0891 1.9454 0.0000 0.0000 0.0000 -17.4595 -10.3380 -3.1656 16.0258 19.6170 78.3086 -0.3462 -23.5321 30.8980 0.3884 4.0022 11.0828 0.0000 0.0000 0.0000 17.9446 7.0989 -55.6704 -27.1878 -18.7133 111.4589 -5.3752 0.3748 -44.1018 -0.9236 6.1226 -17.1407 -6.6118 -3.6907 11.6828 1.5401 -5.6755 1.0133 6.1879 -2.6663 -4.6654 -5.1003 5.7914 -21.8752 -0.6143 10.0501 23.5431 2.1613 3.9822 11.0225 -0.0000 -0.0000 0.0000 -46.7196 -20.8381 5.2945 81.3948 -59.7183 -52.5547 -0.0000 -0.0000 1.7254 14.6094 29.1392 7.2334 -7.1250 0.0000 -0.0000 -18.4700 58.9625 -6.4404 -0.0000 -0.0000 0.0000 12.8987 8.6552 -15.6165 -156.6151 34.5071 -112.6448 0.0000 0.0000 29.3619 -43.4262 30.9770 -25.9738 7.1250 -0.0000 -0.0000 -6.5926 9.3644 -7.6240
12.8854 12.7355 -14.1543 8.4382 -18.0122 2.5363 0.0000 0.0000 0.0000 -17.3375 -10.0407 -3.8009 15.9181 19.5957 77.9875 -0.3333 -23.4509 30.8639 0.1201 2.2340 6.1527 0.0000 0.0000 0.0000 17.6354 7.3447 -55.5717 -26.9063 -18.8157 110.5837 -5.1994 0.3359 -43.3648 -0.9546 6.2218 -17.4293 -6.6659 -3.7270 11.4901 1.5962 -5.7150 0.9966 6.2654 -2.6893 -4.5589 -4.8448 5.9090 -22.2339 -0.9997 10.2510 23.3823 2.0244 4.0454 11.0655 -0.0000 -0.0000 0.0000 -47.4538 -19.9877 6.4448 81.6204 -59.7330 -52.7496 -0.0000 -0.0000 2.6287 14.4110 28.8389 7.0655 -7.1250 0.0000 -0.0000 -18.4705 58.6336 -6.2938 -0.0000 -0.0000 0.0000 13.1181 7.7115 -14.3891 -157.2678 33.7947 -113.0112 0.0000 0.0000 30.3934 -43.6792 29.9204 -25.4691 7.1250 -0.0000 -0.0000 -7.0217 8.2743 -8.0154
12.8407 12.8228 -14.0540 8.4327 -18.0140 3.2107 0.0000 0.0000 0.0000 -16.9202 -9.5455 -4.7053 15.8579 19.5836 77.8081 -0.1606 -22.5857 30.7702 0.0680 1.6829 4.6302 0.0000 0.0000 0.0000 17.5261 7.6613 -55.6396 -26.6655 -18.8996 109.8386 -5.0829 0.4463 -42.8348 -0.8909 6.0164 -16.8319 -6.7125 -3.7489 11.3223 1.6529 -5.7392 0.8734 6.3460 -2.6955 -4.5820 -4.3459 6.0285 -22.2944 -1.5215 10.3767 23.0967 1.7756 4.0887 11.0310 -0.0000 0.0000 0.0000 -48.2995 -19.1923 7.4456 80.8093 -59.6784 -52.0492 -0.0000 -0.0000 3.5503 14.0361 28.6052 6.8254 -7.1250 0.0000 -0.0000 -18.7022 58.3294 -6.2385 -0.0000 0.0000 0.0000 13.7211 7.4227 -13.4112 -157.7105 33.3027 -113.2559 0.0000 0.0000 31.6357 -44.1251 29.8434 -25.7647 7.1250 -0.0000 -0.0000 -7.2849 8.3762 -8.3313
12.7990 12.9051 -13.9516 8.4305 -18.0708 3.5293 0.0000 0.0000 0.0000 -16.4968 -8.8107 -5.3530 15.8600 19.5840 77.8142 -0.1942 -22.2458 30.0461 0.0405 1.2984 3.5701 0.0000 0.0000 0.0000 17.5476 7.8130 -55.1527 -26.4272 -18.9793 109.1044 -5.1237 0.7946 -42.9232 -0.8302 5.8131 -16.2430 -6.6807 -3.8566 11.4202 1.6407 -5.8864 0.8202 6.3456 -2.7625 -4.6747 -3.8742 6.2715 -21.8466 -1.9322 10.6005 22.5395 1.5584 4.2130 10.7906 -0.0000 0.0000 0.0000 -49.1333 -17.8887 8.2062 80.2180 -59.6353 -51.5389 -0.0000 -0.0000 3.9491 13.6807 28.5944 6.6451 -7.1250 0.0000 -0.0000 -19.0637 58.2414 -6.3242 -0.0000 0.0000 0.0000 14.5336 7.6935 -12.3476 -157.9922 32.9858 -113.4099 0.0000 0.0000 33.1138 -45.4489 29.7466 -26.7482 7.1250 -0.0000 -0.0000 -8.0282 8.8454 -9.2517
12.7607 12.9845 -13.8519 8.3473 -18.1083 3.9029 0.0000 0.0000 0.0000 -16.0818 -8.2776 -6.0665 15.9277 19.5977 78.0163 -0.3252 -22.5947 29.6318 0.0021 0.2963 0.8141 0.0000 0.0000 0.0000 17.6079 7.9959 -54.5528 -26.2049 -19.0507 108.4222 -5.1443 1.0152 -42.9574 -0.8594 5.9117 -16.5283 -6.7431 -3.9228 11.2990 1.7974 -5.9625 0.9412 6.5360 -2.8135 -4.4439 -3.7986 6.4929 -21.6296 -2.0772 10.8659 21.9299 1.5096 4.3567 10.5366 -0.0000 0.0000 0.0000 -50.2650 -16.6281 8.8946 79.9761 -59.6169 -51.3302 -0.0000 -0.0000 3.9711 13.6893 28.2438 6.5752 -7.1250 0.0000 -0.0000 -18.8191 57.9119 -6.0886 -0.0000 0.0000 0.0000 15.1474 8.0506 -11.3369 -158.1780 32.7753 -113.5108 0.0000 0.0000 34.3872 -46.5976 29.6848 -27.6386 7.1250 -0.0000 -0.0000 -8.6646 9.2984 -10.0572
12.7263 13.0639 -13.7573 8.4893 -18.0462 4.2983 0.0000 0.0000 0.0000 -15.9418 -8.0463 -6.9615 16.0736 19.6263 78.4509 -0.2933 -22.5174 29.7445 0.0020 -0.2897 -0.7959 0.0000 0.0000 0.0000 17.3326 8.0047 -54.0036 -26.0340 -19.1037 107.8993 -5.1752 1.7125 -42.9248 -0.7637 5.5808 -15.5729 -7.0106 -4.0482 11.2385 1.8959 -6.1534 0.9382 6.8060 -2.9079 -4.3443 -3.6205 6.7009 -21.5034 -2.2588 11.1120 21.5876 1.4406 4.4802 10.4085 0.0000 0.0000 0.0000 -51.4937 -15.2392 9.5155 79.4701 -59.5769 -50.8938 -0.0000 -0.0000 4.0165 13.8590 27.7178 6.5461 -7.1250 0.0000 -0.0000 -18.3010 57.4496 -5.7076 0.0000 0.0000 0.0000 15.8369 8.5003 -10.2653 -158.2903 32.6475 -113.5714 0.0000 0.0000 35.4927 -47.6929 29.6513 -28.5265 7.1250 -0.0000 -0.0000 -9.2617 9.7788 -10.8305
12.6888 13.1557 -13.6630 8.6227 -17.8818 4.4457 0.0000 0.0000 0.0000 -15.6443 -7.8096 -7.8076 16.3080 19.6700 79.1479 -0.0524 -21.7594 30.3401 0.0008 -0.1841 -0.5058 0.0000 0.0000 0.0000 17.2267 7.8192 -53.1236 -25.7937 -19.1754 107.1665 -5.2268 2.2806 -43.0192 -0.6800 5.2726 -14.6877 -7.2552 -4.1847 11.4681 1.9372 -6.3801 0.9047 7.0381 -3.0092 -4.4388 -3.2684 6.9021 -21.1788 -2.4594 11.3030 21.4824 1.3295 4.5824 10.3435 -0.0000 -0.0000 0.0000 -52.6478 -13.9252 10.1630 78.5200 -59.4961 -50.0748 -0.0000 -0.0000 3.7406 13.9522 27.9780 6.6480 -7.1250 0.0000 -0.0000 -18.3728 57.7166 -5.8505 -0.0000 -0.0000 0.0000 16.6801 8.8716 -9.3292 -158.3347 32.5968 -113.5954 0.0000 0.0000 36.7597 -49.2116 29.6088 -29.7965 7.1250 -0.0000 -0.0000 -10.0845 10.4820 -11.9195
12.6455 13.2502 -13.5715 8.6873 -17.8394 4.6351 0.0000 0.0000 0.0000 -15.1479 -7.3529 -8.8695 16.6140 19.7229 80.0558 0.0481 -21.3523 30.4687 0.0000 0.0014 0.0038 0.0000 0.0000 0.0000 17.2708 7.8665 -52.3297 -25.4971 -19.2595 106.2654 -5.2365 2.3583 -43.0437 -0.7578 5.5595 -15.5115 -7.4750 -4.2075 11.5627 1.9270 -6.4428 0.9915 7.1613 -3.0429 -4.3655 -2.6949 7.0864 -20.7976 -2.7383 11.4012 21.1200 1.1352 4.6641 10.1950 0.0000 -0.0000 0.0000 -53.7720 -12.8896 10.6420 77.2429 -59.3760 -48.9752 -0.0000 -0.0000 3.3443 13.9382 28.2630 6.7026 -7.1250 0.0000 -0.0000 -18.5745 57.9839 -6.0383 0.0000 -0.0000 0.0000 17.7180 9.0789 -8.4536 -158.3713 32.5549 -113.6151 0.0000 0.0000 37.7791 -50.5863 30.3858 -31.6121 7.1250 -0.0000 -0.0000 -10.5726 12.1088 -12.7493
